<?xml version="1.0" encoding="UTF-8"?>
<svg xmlns="http://www.w3.org/2000/svg" xmlns:xlink="http://www.w3.org/1999/xlink" width="15pt" height="15pt" viewBox="0 0 15 15" version="1.1">
<g id="surface1">
<path style=" stroke:none;fill-rule:nonzero;fill:rgb(61.960784%,61.960784%,61.960784%);fill-opacity:1;" d="M 1.824219 0.0195312 C 1.726562 0.0429688 1.628906 0.078125 1.539062 0.132812 C 1.457031 0.179688 0.25 1.371094 0.167969 1.480469 C 0.0546875 1.648438 0.0078125 1.792969 0.0078125 2.003906 C 0.0078125 2.203125 0.046875 2.347656 0.152344 2.507812 C 0.191406 2.558594 0.988281 3.363281 2.691406 5.070312 L 5.179688 7.5625 L 2.6875 10.054688 C 1.082031 11.660156 0.175781 12.574219 0.152344 12.613281 C 0.046875 12.777344 0.0078125 12.910156 0.0078125 13.113281 C 0.0078125 13.324219 0.0546875 13.472656 0.167969 13.636719 C 0.25 13.753906 1.457031 14.941406 1.539062 14.988281 C 1.859375 15.179688 2.253906 15.160156 2.546875 14.941406 C 2.570312 14.921875 3.707031 13.785156 5.078125 12.421875 L 7.5625 9.941406 L 10.046875 12.421875 C 11.410156 13.785156 12.550781 14.921875 12.574219 14.941406 C 12.65625 15 12.730469 15.035156 12.839844 15.074219 C 13.082031 15.15625 13.347656 15.125 13.582031 14.988281 C 13.667969 14.941406 14.871094 13.753906 14.949219 13.636719 C 15.070312 13.472656 15.117188 13.328125 15.117188 13.117188 C 15.117188 12.921875 15.074219 12.777344 14.972656 12.621094 C 14.941406 12.574219 14.089844 11.714844 12.433594 10.054688 L 9.941406 7.5625 L 12.429688 5.070312 C 15.035156 2.460938 14.984375 2.519531 15.050781 2.347656 C 15.140625 2.128906 15.144531 1.886719 15.054688 1.671875 C 14.996094 1.519531 14.972656 1.488281 14.328125 0.847656 C 13.988281 0.503906 13.679688 0.199219 13.636719 0.167969 C 13.472656 0.0546875 13.328125 0.0078125 13.117188 0.0078125 C 12.921875 0.0078125 12.777344 0.046875 12.621094 0.144531 C 12.574219 0.179688 11.765625 0.980469 10.054688 2.6875 L 7.5625 5.179688 L 5.066406 2.6875 C 3.347656 0.96875 2.546875 0.179688 2.5 0.144531 C 2.421875 0.0976562 2.324219 0.0546875 2.226562 0.03125 C 2.132812 0.00390625 1.921875 -0.0078125 1.824219 0.0195312 Z M 1.824219 0.0195312 "/>
</g>
</svg>
